<svg xmlns="http://www.w3.org/2000/svg" viewBox="0 0 192 192" width="192" height="192">
  <defs>
    <linearGradient id="grad1" x1="0%" y1="0%" x2="100%" y2="100%">
      <stop offset="0%" style="stop-color:#4f46e5;stop-opacity:1" />
      <stop offset="100%" style="stop-color:#7c3aed;stop-opacity:1" />
    </linearGradient>
  </defs>
  <rect width="192" height="192" rx="40" fill="url(#grad1)"/>
  <g fill="white" transform="translate(96,96)">
    <!-- Brain icon -->
    <path d="M-40,0 C-40,-30 -20,-45 0,-45 C20,-45 40,-30 40,0 C40,30 20,45 0,45 C-20,45 -40,30 -40,0" stroke="white" stroke-width="3" fill="none"/>
    <path d="M0,-45 C-10,-35 -10,-15 0,-5 C10,-15 10,-35 0,-45" stroke="white" stroke-width="2" fill="none"/>
    <path d="M-40,0 C-30,-10 -10,-10 0,0" stroke="white" stroke-width="2" fill="none"/>
    <path d="M40,0 C30,-10 10,-10 0,0" stroke="white" stroke-width="2" fill="none"/>
    <circle cx="-15" cy="-15" r="5" fill="white" opacity="0.8"/>
    <circle cx="15" cy="-15" r="5" fill="white" opacity="0.8"/>
    <circle cx="0" cy="15" r="6" fill="white" opacity="0.8"/>
  </g>
</svg>